<?xml version="1.0" standalone="no"?>
<!DOCTYPE svg PUBLIC "-//W3C//DTD SVG 20010904//EN"
 "http://www.w3.org/TR/2001/REC-SVG-20010904/DTD/svg10.dtd">
<svg version="1.0" xmlns="http://www.w3.org/2000/svg"
 width="860.000000pt" height="860.000000pt" viewBox="0 0 860.000000 860.000000"
 preserveAspectRatio="xMidYMid meet">
<metadata>
Created by potrace 1.14, written by Peter Selinger 2001-2017
</metadata>
<g transform="translate(0.000000,860.000000) scale(0.100000,-0.100000)"
fill="#000000" stroke="none">
<path d="M0 4300 l0 -4300 4300 0 4300 0 0 4300 0 4300 -4300 0 -4300 0 0
-4300z m2086 3881 c8 -1 11 -122 11 -426 l0 -425 -86 0 c-225 -2 -466 -15
-631 -35 -19 -2 -60 -7 -90 -10 -46 -5 -149 -21 -262 -40 -140 -25 -434 -100
-550 -141 -22 -8 -44 -14 -49 -14 -5 0 -9 242 -9 548 l0 547 828 -1 c455 -1
832 -2 838 -3z m2056 -326 c-1 -391 -1 -380 -8 -373 -9 10 -115 -22 -190 -57
-131 -60 -258 -162 -335 -269 l-30 -43 -108 33 c-185 56 -488 118 -686 140
-27 3 -63 7 -80 9 -16 2 -66 7 -110 10 -44 4 -96 8 -115 10 -19 2 -41 4 -47 4
-10 1 -13 94 -13 429 0 236 2 431 4 433 3 2 390 4 861 4 l858 0 -1 -330z
m2041 326 c4 0 7 -428 7 -951 0 -753 -3 -950 -12 -951 -21 -2 -185 10 -228 16
-14 2 -50 7 -80 10 -80 9 -135 18 -280 46 -103 19 -292 65 -380 93 -42 13 -45
15 -43 47 1 19 3 68 6 110 15 284 -119 563 -356 737 -84 63 -242 134 -321 146
-9 1 -19 6 -23 10 -10 9 -11 679 -2 686 6 4 1687 5 1712 1z m2000 0 c4 0 6
-373 5 -828 l-3 -828 -90 -32 c-191 -69 -519 -150 -680 -168 -27 -3 -57 -8
-65 -10 -8 -2 -40 -7 -70 -10 -30 -3 -68 -8 -85 -10 -16 -3 -61 -7 -100 -10
-38 -3 -97 -8 -130 -10 -33 -3 -148 -7 -257 -10 l-196 -4 0 957 c0 526 4 959
8 962 7 4 1638 5 1663 1z m-6086 -2180 l0 -1006 -112 -1 c-118 -1 -399 -13
-450 -19 -16 -2 -62 -6 -100 -9 -39 -4 -81 -8 -95 -10 -14 -3 -63 -9 -110 -15
-47 -6 -95 -13 -106 -15 -12 -3 -38 -7 -58 -10 -141 -23 -379 -81 -531 -130
-60 -20 -111 -36 -113 -36 -1 0 -1 448 0 997 l3 996 95 34 c86 30 283 89 327
98 10 1 45 10 78 18 33 9 87 21 120 26 33 6 70 13 81 15 30 6 80 14 139 22 28
3 57 7 65 9 8 2 47 6 85 10 39 4 85 9 104 11 19 2 91 6 160 10 69 3 127 7 128
7 1 1 66 3 146 3 l144 2 0 -1007z m453 984 c47 -3 99 -8 115 -10 144 -18 187
-24 257 -36 135 -22 242 -45 385 -84 73 -19 135 -35 138 -35 3 0 2 -28 -2 -62
-21 -185 6 -358 79 -502 120 -238 303 -386 577 -468 l44 -13 1 -608 c0 -334
-2 -607 -6 -607 -3 0 -37 14 -75 31 -37 17 -131 56 -208 86 -77 30 -149 58
-160 63 -116 52 -625 176 -800 195 -33 4 -62 8 -65 10 -3 2 -39 6 -80 10 -41
4 -83 9 -92 10 -10 2 -64 7 -120 11 -57 3 -106 8 -110 11 -5 2 -8 456 -8 1008
l0 1004 23 -4 c12 -2 60 -6 107 -10z m5640 -1799 l0 -994 -47 -17 c-27 -10
-64 -23 -84 -30 -47 -18 -207 -65 -239 -71 -14 -3 -34 -8 -45 -11 -11 -4 -24
-8 -30 -9 -5 -1 -39 -9 -75 -18 -36 -8 -81 -18 -100 -21 -19 -3 -57 -10 -85
-15 -50 -9 -164 -26 -242 -35 l-42 -5 -16 57 c-19 68 -84 201 -126 258 -116
158 -318 295 -497 337 l-50 11 0 658 0 659 82 0 c174 1 417 12 546 25 25 3 70
7 100 10 54 5 111 12 160 20 14 2 45 7 70 10 156 22 500 104 630 150 36 13 71
23 78 24 9 1 12 -204 12 -993z m-3105 957 c11 -3 58 -16 105 -30 142 -40 284
-71 450 -99 107 -18 112 -19 195 -29 33 -4 71 -8 85 -10 23 -3 150 -15 225
-20 17 -1 33 -3 38 -4 4 0 7 -299 7 -664 l0 -663 -71 -18 c-248 -64 -480 -271
-578 -518 -26 -65 -9 -62 -154 -27 -214 53 -482 148 -721 256 -67 29 -138 61
-158 70 -33 15 -38 21 -39 52 -1 20 -2 328 -3 684 -1 573 0 650 14 656 8 5 37
13 64 20 158 39 357 177 459 319 22 30 36 41 46 36 9 -3 25 -9 36 -11z m-3014
-1472 l27 -1 -2 -656 -1 -657 -67 -18 c-147 -41 -281 -120 -393 -234 -109
-111 -198 -272 -226 -411 -14 -70 -11 -68 -119 -79 -30 -3 -68 -8 -85 -11 -16
-3 -43 -7 -60 -10 -16 -2 -41 -6 -55 -9 -14 -2 -40 -7 -58 -10 -115 -19 -388
-88 -525 -133 l-87 -28 0 996 0 997 138 46 c291 98 615 166 922 192 41 4 86 8
100 11 14 2 108 6 210 10 102 3 186 7 187 8 1 0 16 0 35 -1 18 -1 45 -2 59 -2z
m549 -26 c19 -2 62 -7 95 -10 33 -3 67 -8 75 -10 8 -2 37 -7 64 -9 76 -9 262
-46 366 -73 52 -14 118 -31 145 -38 49 -12 260 -84 360 -123 70 -27 398 -173
407 -180 12 -12 14 -1972 2 -1972 -6 0 -53 18 -105 41 -308 135 -605 231 -876
285 -17 3 -24 13 -28 42 -47 305 -219 549 -480 680 -65 33 -177 72 -207 72
-17 0 -18 26 -18 656 l0 656 83 -7 c45 -3 98 -8 117 -10z m2031 -678 c228 -95
428 -162 644 -217 187 -46 190 -48 192 -74 11 -140 86 -326 182 -446 108 -137
295 -265 431 -295 3 -1 24 -7 48 -14 l42 -12 0 -651 0 -651 -102 7 c-57 3
-114 8 -128 11 -14 2 -47 6 -75 9 -27 3 -79 9 -115 15 -36 6 -83 13 -105 17
-22 3 -71 12 -110 21 -38 8 -81 17 -95 19 -204 40 -556 164 -864 305 l-132 60
3 972 c1 535 3 978 3 986 0 7 6 11 13 8 6 -3 82 -34 168 -70z m3539 -1115 l0
-999 -126 -42 c-216 -72 -520 -144 -703 -166 -23 -3 -55 -7 -70 -9 -24 -4 -53
-7 -186 -21 -100 -10 -244 -17 -416 -20 l-177 -3 0 659 0 659 42 10 c229 58
428 205 546 406 48 82 92 194 105 272 6 37 10 42 33 43 29 1 46 3 162 20 100
14 163 25 315 54 88 17 395 104 473 134 1 1 2 -448 2 -997z m-6771 -594 c21
-72 89 -209 133 -267 51 -70 149 -167 209 -209 67 -45 174 -97 244 -117 33 -9
67 -20 75 -25 13 -6 15 -89 16 -613 0 -334 -2 -608 -5 -608 -3 -1 -381 -2
-839 -3 l-832 -1 2 829 3 829 85 29 c178 61 448 133 575 154 101 16 283 42
301 43 16 1 24 -8 33 -41z m1901 -79 c239 -63 451 -142 743 -277 71 -33 77
-38 78 -66 3 -144 0 -1406 -4 -1413 -3 -4 -389 -8 -859 -8 l-853 0 -3 612 -2
612 42 11 c275 71 506 271 604 521 l26 66 42 -9 c22 -6 106 -28 186 -49z
m1314 -538 c393 -168 832 -287 1201 -326 33 -4 71 -8 84 -10 13 -2 65 -7 115
-11 83 -6 128 -10 149 -13 4 -1 7 -194 7 -430 0 -334 -3 -430 -12 -433 -11 -4
-1674 -3 -1703 1 -10 1 -16 1291 -6 1291 2 0 76 -31 165 -69z m3554 -678 l-3
-548 -835 0 -835 0 -2 428 -1 427 116 1 c195 2 334 8 517 24 95 8 235 26 390
50 62 10 274 55 335 71 30 9 64 17 75 20 11 2 67 19 125 38 58 19 108 34 113
35 4 1 6 -245 5 -546z"/>
</g>
</svg>
